<svg width="175" height="176" fill="none" xmlns="http://www.w3.org/2000/svg"><rect id="backgroundrect" width="100%" height="100%" x="0" y="0" fill="none" stroke="none"/>

























<defs>
<linearGradient id="paint0_linear_690_3331" x1="0.11968092877387435" y1="0.4973258387296354" x2="1.380322862736204" y2="0.9518761827906677">
<stop stop-color="#6619D0"/>
<stop offset="1" stop-color="#00BFCB"/>
</linearGradient>
<linearGradient id="paint1_linear_690_3331" x1="0.05721433994489412" y1="0.3159222725703362" x2="0.8457657491115439" y2="0.8606985541622089">
<stop stop-color="#6619D0"/>
<stop offset="1" stop-color="#00BFCB"/>
</linearGradient>
<linearGradient id="paint2_linear_690_3331" x1="0.49999984184637397" y1="0" x2="0.49999984184637397" y2="1">
<stop stop-color="#00C1CD"/>
<stop offset="1" stop-color="#00C1CD" stop-opacity="0.65"/>
</linearGradient>
<linearGradient id="paint3_linear_690_3331" x1="0.5" y1="-0.000002421428038875295" x2="0.5" y2="0.9999982543193208">
<stop stop-color="#00C1CD"/>
<stop offset="1" stop-color="#00C1CD" stop-opacity="0.65"/>
</linearGradient>
<linearGradient id="paint4_linear_690_3331" x1="0.49999984184637397" y1="0.000028494016875891213" x2="0.49999984184637397" y2="1.0000123887029895">
<stop stop-color="#00C1CD"/>
<stop offset="1" stop-color="#00C1CD" stop-opacity="0.65"/>
</linearGradient>
<linearGradient id="paint5_linear_690_3331" x1="0.5" y1="-0.00001621794028554387" x2="0.5" y2="1.0000162179402856">
<stop stop-color="#00C1CD"/>
<stop offset="1" stop-color="#00C1CD" stop-opacity="0.65"/>
</linearGradient>
<linearGradient id="paint6_linear_690_3331" x1="0.5000003163073521" y1="-3.0971747881300155e-7" x2="0.5000003163073521" y2="0.9999916376280721">
<stop stop-color="#00C1CD"/>
<stop offset="1" stop-color="#00C1CD" stop-opacity="0.65"/>
</linearGradient>
<linearGradient id="paint7_linear_690_3331" x1="0.500000464576506" y1="-0.000004054483244847991" x2="0.500000464576506" y2="0.9999977475093084">
<stop stop-color="#00C1CD"/>
<stop offset="1" stop-color="#00C1CD" stop-opacity="0.65"/>
</linearGradient>
<linearGradient id="paint8_linear_690_3331" x1="0.5" y1="-3.0971747881300155e-7" x2="0.5" y2="0.9999916376280721">
<stop stop-color="#00C1CD"/>
<stop offset="1" stop-color="#00C1CD" stop-opacity="0.65"/>
</linearGradient>
<linearGradient id="paint9_linear_690_3331" x1="0.5" y1="-0.000004054483244847991" x2="0.5" y2="0.9999977475093084">
<stop stop-color="#00C1CD"/>
<stop offset="1" stop-color="#00C1CD" stop-opacity="0.65"/>
</linearGradient>
<linearGradient id="paint10_linear_690_3331" x1="0.5000003163073521" y1="-0.000012388702989517919" x2="0.5000003163073521" y2="0.9999715059831241">
<stop stop-color="#00C1CD"/>
<stop offset="1" stop-color="#00C1CD" stop-opacity="0.65"/>
</linearGradient>
<linearGradient id="paint11_linear_690_3331" x1="0.500000464576506" y1="0.000043247840761450316" x2="0.500000464576506" y2="1.0000162179402856">
<stop stop-color="#00C1CD"/>
<stop offset="1" stop-color="#00C1CD" stop-opacity="0.65"/>
</linearGradient>
<linearGradient id="paint12_linear_690_3331" x1="0.5" y1="-0.000012388702989517919" x2="0.5" y2="0.9999715059831241">
<stop stop-color="#00C1CD"/>
<stop offset="1" stop-color="#00C1CD" stop-opacity="0.65"/>
</linearGradient>
<linearGradient id="paint13_linear_690_3331" x1="0.499999941927957" y1="0.000043247840761450316" x2="0.499999941927957" y2="1.0000162179402856">
<stop stop-color="#00C1CD"/>
<stop offset="1" stop-color="#00C1CD" stop-opacity="0.65"/>
</linearGradient>
<linearGradient id="paint14_linear_690_3331" x1="0.5" y1="0" x2="0.5" y2="1">
<stop stop-color="#00C1CD"/>
<stop offset="1" stop-color="#00C1CD" stop-opacity="0.65"/>
</linearGradient>
<linearGradient id="paint15_linear_690_3331" x1="0.499999941927957" y1="0.000001801992756214369" x2="0.499999941927957" y2="0.9999981980072438">
<stop stop-color="#00C1CD"/>
<stop offset="1" stop-color="#00C1CD" stop-opacity="0.65"/>
</linearGradient>
<linearGradient id="paint16_linear_690_3331" x1="0.500004005862117" y1="2.1777777468049386e-8" x2="0.500004005862117" y2="0.999996188888943">
<stop stop-color="#6619D0"/>
<stop offset="1" stop-color="#00BFCB"/>
</linearGradient>
<clipPath id="clip0_690_3331">
<rect width="9.237529754638672" height="9.237529754638672" fill="white" y="7.697999954223633" x="82.62449645996094" id="svg_1"/>
</clipPath>
<clipPath id="clip1_690_3331">
<rect width="9.237529754638672" height="9.237529754638672" fill="white" y="158.5780029296875" x="82.62449645996094" id="svg_2"/>
</clipPath>
<clipPath id="clip2_690_3331">
<rect width="9.237529754638672" height="9.237529754638672" fill="white" y="83.13780212402344" x="158.06399536132812" id="svg_3"/>
</clipPath>
<clipPath id="clip3_690_3331">
<rect width="9.237529754638672" height="9.237529754638672" fill="white" y="83.13780212402344" x="7.184810161590576" id="svg_4"/>
</clipPath>
<clipPath id="clip4_690_3331">
<rect width="9.237529754638672" height="9.237529754638672" fill="white" y="132.91799926757812" x="139.0760040283203" id="svg_5"/>
</clipPath>
<clipPath id="clip5_690_3331">
<rect width="9.237529754638672" height="9.237529754638672" fill="white" y="132.91799926757812" x="25.659900665283203" id="svg_6"/>
</clipPath>
<clipPath id="clip6_690_3331">
<rect width="9.237529754638672" height="9.237529754638672" fill="white" y="32.33150100708008" x="25.659900665283203" id="svg_7"/>
</clipPath>
</defs>
<g class="currentLayer" style=""><title>Layer 1</title><ellipse opacity="0.4" cx="87.5" cy="88.3749008178711" rx="54.83330154418945" ry="54.54159927368164" fill="url(#paint0_linear_690_3331)" id="svg_8"/><path fill-rule="evenodd" clip-rule="evenodd" d="M86.3564 11.4548C86.8329 11.4461 87.3105 11.4417 87.789 11.4417C88.2676 11.4417 88.7452 11.4461 89.2217 11.4548C89.7048 11.4637 90.0893 11.8626 90.0804 12.3458C90.0715 12.8289 89.6726 13.2134 89.1895 13.2045C88.7237 13.196 88.2569 13.1916 87.789 13.1916C87.3212 13.1916 86.8544 13.196 86.3886 13.2045C85.9054 13.2134 85.5065 12.8289 85.4976 12.3458C85.4888 11.8626 85.8732 11.4637 86.3564 11.4548ZM81.6099 12.5609C81.6544 13.0421 81.3005 13.4683 80.8193 13.5129C79.8894 13.599 78.9645 13.7023 78.0448 13.8222C77.5656 13.8847 77.1265 13.5469 77.064 13.0677C77.0015 12.5886 77.3393 12.1494 77.8185 12.0869C78.7597 11.9641 79.7063 11.8585 80.6579 11.7704C81.1391 11.7258 81.5653 12.0797 81.6099 12.5609ZM93.9682 12.5609C94.0128 12.0797 94.439 11.7258 94.9202 11.7704C95.8718 11.8585 96.8184 11.9641 97.7596 12.0869C98.2388 12.1494 98.5766 12.5886 98.5141 13.0677C98.4516 13.5469 98.0124 13.8847 97.5332 13.8222C96.6136 13.7023 95.6887 13.599 94.7588 13.5129C94.2776 13.4683 93.9236 13.0421 93.9682 12.5609ZM73.2257 13.7154C73.3239 14.1885 73.02 14.6517 72.5468 14.75C71.6333 14.9396 70.7259 15.1459 69.825 15.3687C69.3559 15.4846 68.8816 15.1984 68.7656 14.7292C68.6496 14.2601 68.9359 13.7858 69.405 13.6698C70.3272 13.4418 71.256 13.2306 72.1911 13.0365C72.6642 12.9383 73.1274 13.2422 73.2257 13.7154ZM102.352 13.7154C102.451 13.2422 102.914 12.9383 103.387 13.0365C104.322 13.2306 105.251 13.4418 106.173 13.6698C106.642 13.7858 106.928 14.2601 106.812 14.7292C106.696 15.1984 106.222 15.4846 105.753 15.3687C104.852 15.1459 103.945 14.9396 103.031 14.75C102.558 14.6517 102.254 14.1885 102.352 13.7154ZM65.0212 15.8062C65.1722 16.2652 64.9224 16.7598 64.4634 16.9107C63.5786 17.2017 62.7012 17.5088 61.8314 17.8317C61.3783 17.9999 60.8747 17.7689 60.7066 17.3159C60.5384 16.8628 60.7693 16.3593 61.2224 16.1911C62.1127 15.8606 63.0109 15.5462 63.9166 15.2484C64.3757 15.0974 64.8702 15.3471 65.0212 15.8062ZM110.557 15.8062C110.708 15.3471 111.202 15.0974 111.661 15.2484C112.567 15.5462 113.465 15.8606 114.356 16.1911C114.809 16.3593 115.04 16.8628 114.871 17.3159C114.703 17.7689 114.2 17.9999 113.747 17.8317C112.877 17.5088 111.999 17.2017 111.115 16.9107C110.656 16.7598 110.406 16.2652 110.557 15.8062ZM57.1069 18.8086C57.3086 19.2477 57.1162 19.7673 56.6771 19.9691C55.8309 20.3579 54.9933 20.7621 54.1645 21.1813C53.7333 21.3994 53.2069 21.2267 52.9887 20.7955C52.7706 20.3642 52.9434 19.8378 53.3746 19.6197C54.2229 19.1906 55.0803 18.7769 55.9464 18.3789C56.3856 18.1771 56.9051 18.3695 57.1069 18.8086ZM118.471 18.8086C118.673 18.3695 119.193 18.1771 119.632 18.3789C120.498 18.7769 121.355 19.1906 122.203 19.6197C122.635 19.8378 122.807 20.3642 122.589 20.7955C122.371 21.2267 121.845 21.3994 121.414 21.1813C120.585 20.7621 119.747 20.3579 118.901 19.9691C118.462 19.7673 118.269 19.2477 118.471 18.8086ZM125.997 22.6825C126.246 22.2688 126.784 22.136 127.198 22.3858C128.014 22.8783 128.819 23.3857 129.615 23.9076C130.019 24.1727 130.131 24.7151 129.866 25.1191C129.601 25.5232 129.059 25.6359 128.655 25.3708C127.878 24.8609 127.09 24.3651 126.293 23.8839C125.88 23.6341 125.747 23.0962 125.997 22.6825ZM49.5816 22.6825C49.8313 23.0962 49.6985 23.6341 49.2848 23.8839C48.4878 24.3651 47.7005 24.8609 46.9233 25.3708C46.5192 25.6359 45.9768 25.5232 45.7117 25.1191C45.4466 24.7151 45.5593 24.1726 45.9633 23.9076C46.7587 23.3857 47.5645 22.8783 48.3802 22.3858C48.7939 22.136 49.3318 22.2688 49.5816 22.6825ZM42.5364 27.3761C42.8309 27.7593 42.759 28.3086 42.3758 28.6031C41.6381 29.17 40.9112 29.7504 40.1956 30.344C39.8237 30.6525 39.272 30.6011 38.9635 30.2291C38.655 29.8572 38.7064 29.3055 39.0784 28.997C39.8107 28.3896 40.5545 27.7957 41.3095 27.2155C41.6927 26.921 42.242 26.9929 42.5364 27.3761ZM133.042 27.3761C133.336 26.9929 133.885 26.921 134.269 27.2155C135.024 27.7957 135.767 28.3896 136.5 28.997C136.872 29.3055 136.923 29.8572 136.615 30.2291C136.306 30.6011 135.754 30.6525 135.382 30.344C134.667 29.7504 133.94 29.17 133.202 28.6031C132.819 28.3086 132.747 27.7593 133.042 27.3761ZM36.0594 32.8262C36.3947 33.1742 36.3844 33.7281 36.0364 34.0634C35.3666 34.7088 34.7088 35.3665 34.0634 36.0364C33.7281 36.3844 33.1742 36.3947 32.8262 36.0594C32.4782 35.7241 32.4679 35.1701 32.8032 34.8221C33.4636 34.1367 34.1367 33.4636 34.8221 32.8032C35.1701 32.4679 35.7241 32.4782 36.0594 32.8262ZM139.519 32.8262C139.854 32.4782 140.408 32.4679 140.756 32.8032C141.441 33.4636 142.114 34.1367 142.775 34.8221C143.11 35.1701 143.1 35.7241 142.752 36.0594C142.404 36.3947 141.85 36.3844 141.515 36.0364C140.869 35.3666 140.212 34.7088 139.542 34.0634C139.194 33.7281 139.183 33.1742 139.519 32.8262ZM30.2291 38.9635C30.6011 39.272 30.6525 39.8237 30.344 40.1956C29.7504 40.9112 29.17 41.6381 28.6031 42.3758C28.3086 42.759 27.7593 42.8309 27.3761 42.5364C26.9929 42.242 26.921 41.6927 27.2155 41.3095C27.7957 40.5545 28.3896 39.8107 28.997 39.0784C29.3055 38.7064 29.8572 38.655 30.2291 38.9635ZM145.349 38.9635C145.721 38.655 146.273 38.7064 146.581 39.0784C147.188 39.8107 147.782 40.5545 148.363 41.3095C148.657 41.6927 148.585 42.242 148.202 42.5364C147.819 42.8309 147.269 42.759 146.975 42.3758C146.408 41.6381 145.828 40.9112 145.234 40.1956C144.926 39.8237 144.977 39.272 145.349 38.9635ZM25.1191 45.7117C25.5232 45.9768 25.6359 46.5192 25.3708 46.9233C24.8609 47.7005 24.3651 48.4878 23.8839 49.2848C23.6341 49.6985 23.0962 49.8314 22.6825 49.5816C22.2688 49.3318 22.136 48.7939 22.3858 48.3802C22.8783 47.5645 23.3857 46.7587 23.9076 45.9633C24.1727 45.5593 24.7151 45.4466 25.1191 45.7117ZM150.459 45.7117C150.863 45.4466 151.405 45.5593 151.671 45.9633C152.192 46.7587 152.7 47.5645 153.192 48.3802C153.442 48.7939 153.309 49.3318 152.896 49.5816C152.482 49.8313 151.944 49.6985 151.694 49.2848C151.213 48.4878 150.717 47.7005 150.207 46.9233C149.942 46.5192 150.055 45.9768 150.459 45.7117ZM20.7955 52.9887C21.2267 53.2069 21.3994 53.7333 21.1813 54.1645C20.7621 54.9933 20.3579 55.8309 19.9691 56.6771C19.7673 57.1162 19.2477 57.3086 18.8086 57.1069C18.3695 56.9051 18.1771 56.3856 18.3789 55.9464C18.7769 55.0803 19.1906 54.2229 19.6197 53.3746C19.8378 52.9434 20.3642 52.7706 20.7955 52.9887ZM154.783 52.9887C155.214 52.7706 155.74 52.9434 155.958 53.3746C156.387 54.2229 156.801 55.0803 157.199 55.9464C157.401 56.3856 157.209 56.9051 156.769 57.1069C156.33 57.3086 155.811 57.1162 155.609 56.6771C155.22 55.8309 154.816 54.9933 154.397 54.1645C154.179 53.7333 154.351 53.2069 154.783 52.9887ZM17.3159 60.7066C17.7689 60.8747 17.9999 61.3783 17.8317 61.8314C17.5088 62.7012 17.2017 63.5786 16.9107 64.4634C16.7598 64.9224 16.2652 65.1722 15.8062 65.0212C15.3471 64.8702 15.0974 64.3757 15.2484 63.9166C15.5462 63.0109 15.8606 62.1127 16.1911 61.2224C16.3593 60.7693 16.8628 60.5384 17.3159 60.7066ZM158.262 60.7066C158.715 60.5384 159.219 60.7693 159.387 61.2224C159.717 62.1127 160.032 63.0109 160.33 63.9166C160.481 64.3757 160.231 64.8702 159.772 65.0212C159.313 65.1722 158.818 64.9224 158.667 64.4634C158.376 63.5786 158.069 62.7012 157.746 61.8314C157.578 61.3783 157.809 60.8747 158.262 60.7066ZM14.7292 68.7656C15.1984 68.8816 15.4846 69.3559 15.3687 69.825C15.1459 70.7259 14.9396 71.6333 14.75 72.5468C14.6517 73.02 14.1885 73.3239 13.7154 73.2257C13.2422 73.1274 12.9383 72.6642 13.0365 72.1911C13.2306 71.256 13.4418 70.3272 13.6698 69.405C13.7858 68.9359 14.2601 68.6496 14.7292 68.7656ZM160.849 68.7656C161.318 68.6496 161.792 68.9359 161.908 69.405C162.136 70.3272 162.347 71.256 162.542 72.1911C162.64 72.6642 162.336 73.1274 161.863 73.2257C161.39 73.3239 160.926 73.02 160.828 72.5468C160.638 71.6333 160.432 70.7259 160.209 69.825C160.093 69.3559 160.38 68.8816 160.849 68.7656ZM13.0677 77.064C13.5469 77.1265 13.8847 77.5656 13.8222 78.0448C13.7023 78.9645 13.599 79.8894 13.5129 80.8193C13.4683 81.3005 13.0421 81.6544 12.5609 81.6099C12.0797 81.5653 11.7258 81.1391 11.7704 80.6579C11.8585 79.7063 11.9641 78.7597 12.0869 77.8185C12.1494 77.3393 12.5886 77.0015 13.0677 77.064ZM162.51 77.064C162.99 77.0015 163.429 77.3393 163.491 77.8185C163.614 78.7597 163.72 79.7063 163.808 80.6579C163.852 81.1391 163.498 81.5653 163.017 81.6099C162.536 81.6544 162.11 81.3005 162.065 80.8193C161.979 79.8894 161.876 78.9645 161.756 78.0448C161.693 77.5656 162.031 77.1265 162.51 77.064ZM163.232 85.4976C163.715 85.4888 164.114 85.8732 164.123 86.3564C164.132 86.8329 164.136 87.3105 164.136 87.789C164.136 88.2676 164.132 88.7452 164.123 89.2217C164.114 89.7048 163.715 90.0893 163.232 90.0804C162.749 90.0715 162.365 89.6726 162.374 89.1895C162.382 88.7237 162.386 88.2569 162.386 87.789C162.386 87.3212 162.382 86.8544 162.374 86.3886C162.365 85.9054 162.749 85.5065 163.232 85.4976ZM12.3458 85.4977C12.8289 85.5065 13.2134 85.9054 13.2045 86.3886C13.196 86.8544 13.1916 87.3212 13.1916 87.789C13.1916 88.2569 13.196 88.7237 13.2045 89.1895C13.2134 89.6726 12.8289 90.0715 12.3458 90.0804C11.8626 90.0893 11.4637 89.7048 11.4548 89.2217C11.4461 88.7452 11.4417 88.2676 11.4417 87.789C11.4417 87.3105 11.4461 86.8329 11.4548 86.3564C11.4637 85.8732 11.8626 85.4888 12.3458 85.4977ZM12.5609 93.9682C13.0421 93.9236 13.4683 94.2776 13.5129 94.7588C13.599 95.6887 13.7023 96.6136 13.8222 97.5332C13.8847 98.0124 13.5469 98.4516 13.0677 98.5141C12.5886 98.5766 12.1494 98.2388 12.0869 97.7596C11.9641 96.8184 11.8585 95.8718 11.7704 94.9202C11.7258 94.439 12.0797 94.0128 12.5609 93.9682ZM163.017 93.9682C163.498 94.0128 163.852 94.439 163.808 94.9202C163.72 95.8718 163.614 96.8184 163.491 97.7596C163.429 98.2388 162.99 98.5766 162.51 98.5141C162.031 98.4516 161.693 98.0124 161.756 97.5332C161.876 96.6136 161.979 95.6887 162.065 94.7588C162.11 94.2776 162.536 93.9236 163.017 93.9682ZM13.7154 102.352C14.1885 102.254 14.6517 102.558 14.75 103.031C14.9396 103.945 15.1459 104.852 15.3687 105.753C15.4846 106.222 15.1984 106.696 14.7292 106.812C14.2601 106.928 13.7858 106.642 13.6698 106.173C13.4418 105.251 13.2306 104.322 13.0365 103.387C12.9383 102.914 13.2422 102.451 13.7154 102.352ZM161.863 102.352C162.336 102.451 162.64 102.914 162.542 103.387C162.347 104.322 162.136 105.251 161.908 106.173C161.792 106.642 161.318 106.928 160.849 106.812C160.38 106.696 160.093 106.222 160.209 105.753C160.432 104.852 160.638 103.945 160.828 103.031C160.926 102.558 161.39 102.254 161.863 102.352ZM15.8062 110.557C16.2652 110.406 16.7598 110.656 16.9107 111.115C17.2017 111.999 17.5088 112.877 17.8317 113.747C17.9999 114.2 17.7689 114.703 17.3159 114.871C16.8628 115.04 16.3593 114.809 16.1911 114.356C15.8606 113.465 15.5462 112.567 15.2484 111.661C15.0974 111.202 15.3471 110.708 15.8062 110.557ZM159.772 110.557C160.231 110.708 160.481 111.202 160.33 111.661C160.032 112.567 159.717 113.465 159.387 114.356C159.219 114.809 158.715 115.04 158.262 114.871C157.809 114.703 157.578 114.2 157.746 113.747C158.069 112.877 158.376 111.999 158.667 111.115C158.818 110.656 159.313 110.406 159.772 110.557ZM18.8086 118.471C19.2477 118.269 19.7673 118.462 19.9691 118.901C20.3579 119.747 20.7621 120.585 21.1813 121.414C21.3994 121.845 21.2267 122.371 20.7955 122.589C20.3642 122.807 19.8378 122.635 19.6197 122.203C19.1906 121.355 18.7769 120.498 18.3789 119.632C18.1771 119.193 18.3695 118.673 18.8086 118.471ZM156.769 118.471C157.209 118.673 157.401 119.193 157.199 119.632C156.801 120.498 156.387 121.355 155.958 122.203C155.74 122.635 155.214 122.807 154.783 122.589C154.351 122.371 154.179 121.845 154.397 121.414C154.816 120.585 155.22 119.747 155.609 118.901C155.811 118.462 156.33 118.269 156.769 118.471ZM152.896 125.997C153.309 126.246 153.442 126.784 153.192 127.198C152.7 128.014 152.192 128.819 151.671 129.615C151.405 130.019 150.863 130.131 150.459 129.866C150.055 129.601 149.942 129.059 150.207 128.655C150.717 127.878 151.213 127.09 151.694 126.293C151.944 125.88 152.482 125.747 152.896 125.997ZM22.6825 125.997C23.0962 125.747 23.6341 125.88 23.8839 126.293C24.3651 127.09 24.8609 127.878 25.3708 128.655C25.6359 129.059 25.5232 129.601 25.1191 129.866C24.7151 130.131 24.1726 130.019 23.9076 129.615C23.3857 128.819 22.8783 128.014 22.3858 127.198C22.136 126.784 22.2688 126.246 22.6825 125.997ZM27.3761 133.042C27.7593 132.747 28.3086 132.819 28.6031 133.202C29.17 133.94 29.7504 134.667 30.344 135.382C30.6525 135.754 30.6011 136.306 30.2291 136.615C29.8572 136.923 29.3055 136.872 28.997 136.5C28.3896 135.767 27.7957 135.024 27.2155 134.269C26.921 133.885 26.9929 133.336 27.3761 133.042ZM148.202 133.042C148.585 133.336 148.657 133.885 148.363 134.269C147.782 135.024 147.188 135.767 146.581 136.5C146.273 136.872 145.721 136.923 145.349 136.615C144.977 136.306 144.926 135.754 145.234 135.382C145.828 134.667 146.408 133.94 146.975 133.202C147.269 132.819 147.819 132.747 148.202 133.042ZM32.8262 139.519C33.1742 139.183 33.7281 139.194 34.0634 139.542C34.7088 140.212 35.3665 140.869 36.0364 141.515C36.3844 141.85 36.3947 142.404 36.0594 142.752C35.7241 143.1 35.1701 143.11 34.8221 142.775C34.1367 142.114 33.4636 141.441 32.8032 140.756C32.4679 140.408 32.4782 139.854 32.8262 139.519ZM142.752 139.519C143.1 139.854 143.11 140.408 142.775 140.756C142.114 141.441 141.441 142.114 140.756 142.775C140.408 143.11 139.854 143.1 139.519 142.752C139.183 142.404 139.194 141.85 139.542 141.515C140.212 140.869 140.869 140.212 141.515 139.542C141.85 139.194 142.404 139.183 142.752 139.519ZM38.9635 145.349C39.272 144.977 39.8237 144.926 40.1956 145.234C40.9112 145.828 41.6381 146.408 42.3758 146.975C42.759 147.269 42.8309 147.819 42.5364 148.202C42.242 148.585 41.6927 148.657 41.3095 148.363C40.5545 147.782 39.8107 147.188 39.0784 146.581C38.7064 146.273 38.655 145.721 38.9635 145.349ZM136.615 145.349C136.923 145.721 136.872 146.273 136.5 146.581C135.767 147.188 135.024 147.782 134.269 148.363C133.885 148.657 133.336 148.585 133.042 148.202C132.747 147.819 132.819 147.269 133.202 146.975C133.94 146.408 134.667 145.828 135.382 145.234C135.754 144.926 136.306 144.977 136.615 145.349ZM45.7117 150.459C45.9768 150.055 46.5192 149.942 46.9233 150.207C47.7005 150.717 48.4878 151.213 49.2848 151.694C49.6985 151.944 49.8314 152.482 49.5816 152.896C49.3318 153.309 48.7939 153.442 48.3802 153.192C47.5645 152.7 46.7587 152.192 45.9633 151.671C45.5593 151.405 45.4466 150.863 45.7117 150.459ZM129.866 150.459C130.131 150.863 130.019 151.405 129.615 151.671C128.819 152.192 128.014 152.7 127.198 153.192C126.784 153.442 126.246 153.309 125.997 152.896C125.747 152.482 125.88 151.944 126.293 151.694C127.09 151.213 127.878 150.717 128.655 150.207C129.059 149.942 129.601 150.055 129.866 150.459ZM52.9887 154.783C53.2069 154.351 53.7333 154.179 54.1645 154.397C54.9933 154.816 55.8309 155.22 56.6771 155.609C57.1162 155.811 57.3086 156.33 57.1069 156.769C56.9051 157.209 56.3856 157.401 55.9464 157.199C55.0803 156.801 54.2229 156.387 53.3746 155.958C52.9434 155.74 52.7706 155.214 52.9887 154.783ZM122.589 154.783C122.807 155.214 122.635 155.74 122.203 155.958C121.355 156.387 120.498 156.801 119.632 157.199C119.193 157.401 118.673 157.209 118.471 156.769C118.269 156.33 118.462 155.811 118.901 155.609C119.747 155.22 120.585 154.816 121.414 154.397C121.845 154.179 122.371 154.351 122.589 154.783ZM60.7066 158.262C60.8747 157.809 61.3783 157.578 61.8314 157.746C62.7012 158.069 63.5786 158.376 64.4634 158.667C64.9224 158.818 65.1722 159.313 65.0212 159.772C64.8702 160.231 64.3757 160.481 63.9166 160.33C63.0109 160.032 62.1127 159.717 61.2224 159.387C60.7693 159.219 60.5384 158.715 60.7066 158.262ZM114.871 158.262C115.04 158.715 114.809 159.219 114.356 159.387C113.465 159.717 112.567 160.032 111.661 160.33C111.202 160.481 110.708 160.231 110.557 159.772C110.406 159.313 110.656 158.818 111.115 158.667C111.999 158.376 112.877 158.069 113.747 157.746C114.2 157.578 114.703 157.809 114.871 158.262ZM68.7656 160.849C68.8816 160.38 69.3559 160.093 69.825 160.209C70.7259 160.432 71.6333 160.638 72.5468 160.828C73.02 160.926 73.3239 161.39 73.2257 161.863C73.1274 162.336 72.6642 162.64 72.1911 162.542C71.256 162.347 70.3272 162.136 69.405 161.908C68.9359 161.792 68.6496 161.318 68.7656 160.849ZM106.812 160.849C106.928 161.318 106.642 161.792 106.173 161.908C105.251 162.136 104.322 162.347 103.387 162.542C102.914 162.64 102.451 162.336 102.352 161.863C102.254 161.39 102.558 160.926 103.031 160.828C103.945 160.638 104.852 160.432 105.753 160.209C106.222 160.093 106.696 160.38 106.812 160.849ZM77.064 162.51C77.1265 162.031 77.5656 161.693 78.0448 161.756C78.9645 161.876 79.8894 161.979 80.8193 162.065C81.3005 162.11 81.6544 162.536 81.6099 163.017C81.5653 163.498 81.1391 163.852 80.6579 163.808C79.7063 163.72 78.7597 163.614 77.8185 163.491C77.3393 163.429 77.0015 162.99 77.064 162.51ZM98.5141 162.51C98.5766 162.99 98.2388 163.429 97.7596 163.491C96.8184 163.614 95.8718 163.72 94.9202 163.808C94.439 163.852 94.0128 163.498 93.9682 163.017C93.9236 162.536 94.2776 162.11 94.7588 162.065C95.6887 161.979 96.6136 161.876 97.5332 161.756C98.0124 161.693 98.4516 162.031 98.5141 162.51ZM85.4977 163.232C85.5065 162.749 85.9054 162.365 86.3886 162.374C86.8544 162.382 87.3212 162.386 87.789 162.386C88.2569 162.386 88.7237 162.382 89.1895 162.374C89.6726 162.365 90.0715 162.749 90.0804 163.232C90.0893 163.715 89.7048 164.114 89.2217 164.123C88.7452 164.132 88.2676 164.136 87.789 164.136C87.3105 164.136 86.8329 164.132 86.3564 164.123C85.8732 164.114 85.4888 163.715 85.4977 163.232Z" fill="#00BFCB" id="svg_9"/><path fill-rule="evenodd" clip-rule="evenodd" d="M87.7917 35C58.6357 35 35.0001 58.6356 35.0001 87.7916C35.0001 116.948 58.6357 140.583 87.7917 140.583C116.948 140.583 140.583 116.948 140.583 87.7916C140.583 82.5021 139.806 77.3993 138.362 72.5885C137.899 71.0457 138.774 69.4195 140.317 68.9564C141.86 68.4933 143.486 69.3685 143.949 70.9113C145.555 76.2604 146.417 81.9279 146.417 87.7916C146.417 120.169 120.169 146.416 87.7917 146.416C55.414 146.416 29.1667 120.169 29.1667 87.7916C29.1667 55.4139 55.414 29.1666 87.7917 29.1666C100.58 29.1666 112.419 33.2644 122.057 40.2179C123.363 41.1604 123.658 42.9834 122.716 44.2898C121.773 45.5961 119.95 45.8911 118.644 44.9486C109.966 38.688 99.3141 35 87.7917 35Z" fill="url(#paint1_linear_690_3331)" id="svg_10"/><ellipse opacity="0.68" cx="87.49980163574219" cy="12.316699981689453" rx="12.060099601745605" ry="12.316699981689453" fill="#6767e7" id="svg_11" class="" stroke-width="7" fill-opacity="1"/><ellipse cx="87.24340057373047" cy="12.5733003616333" rx="8.211130142211914" ry="8.467729568481445" fill="#6767e7" id="svg_12" class="" stroke-width="7" opacity="0.68" fill-opacity="1"/><g clip-path="url(#clip0_690_3331)" id="svg_13">
<path d="M88.7828 9.23761H89.5526C89.7568 9.23761 89.9526 9.31871 90.0969 9.46308C90.2413 9.60744 90.3224 9.80324 90.3224 10.0074V15.396C90.3224 15.6001 90.2413 15.7959 90.0969 15.9403C89.9526 16.0847 89.7568 16.1658 89.5526 16.1658H84.9339C84.7297 16.1658 84.5339 16.0847 84.3895 15.9403C84.2452 15.7959 84.1641 15.6001 84.1641 15.396V10.0074C84.1641 9.80324 84.2452 9.60744 84.3895 9.46308C84.5339 9.31871 84.7297 9.23761 84.9339 9.23761H85.7036" stroke="white" stroke-width="2" stroke-linecap="round" stroke-linejoin="round" id="svg_14"/>
<path d="M88.3979 8.46777H86.0885C85.8759 8.46777 85.7036 8.6401 85.7036 8.85267V9.62246C85.7036 9.83504 85.8759 10.0074 86.0885 10.0074H88.3979C88.6105 10.0074 88.7828 9.83504 88.7828 9.62246V8.85267C88.7828 8.6401 88.6105 8.46777 88.3979 8.46777Z" stroke="white" stroke-width="2" stroke-linecap="round" stroke-linejoin="round" id="svg_15"/>
</g><ellipse opacity="0.68" cx="87.49980163574219" cy="163.1959991455078" rx="12.060099601745605" ry="12.316699981689453" fill="#6767e7" id="svg_16" class="" stroke-width="7" fill-opacity="1"/><ellipse cx="87.24340057373047" cy="163.4530029296875" rx="8.211130142211914" ry="8.467729568481445" fill="#6767e7" id="svg_17" class="" transform="matrix(1, 0, 0, 1, 0, 0) matrix(1, 0, 0, 1, 0, 0) matrix(1, 0, 0, 1, 0, 0) matrix(1, 0, 0, 1, 0, 0) matrix(1, 0, 0, 1, 0, 0) matrix(1, 0, 0, 1, 0, 0) matrix(1, 0, 0, 1, 0, 0) matrix(1, 0, 0, 1, 0, 0) matrix(1, 0, 0, 1, 0, 0) matrix(1, 0, 0, 1, 0, 0)" stroke-width="7" opacity="0.68" fill-opacity="1"/><g clip-path="url(#clip1_690_3331)" id="svg_18">
<path d="M91.0922 165.891C91.0922 166.095 91.0111 166.291 90.8668 166.435C90.7224 166.579 90.5266 166.66 90.3224 166.66H84.1641C83.9599 166.66 83.7641 166.579 83.6198 166.435C83.4754 166.291 83.3943 166.095 83.3943 165.891V160.502C83.3943 160.298 83.4754 160.102 83.6198 159.958C83.7641 159.813 83.9599 159.732 84.1641 159.732H86.0886L86.8584 160.887H90.3224C90.5266 160.887 90.7224 160.968 90.8668 161.112C91.0111 161.257 91.0922 161.453 91.0922 161.657V165.891Z" stroke="white" stroke-width="2" stroke-linecap="round" stroke-linejoin="round" id="svg_19"/>
</g><ellipse opacity="0.35" cx="162.94000244140625" cy="87.75650024414062" rx="12.060099601745605" ry="12.316699981689453" fill="url(#paint6_linear_690_3331)" id="svg_20" class=""/><ellipse opacity="0.68" cx="162.94000244140625" cy="87.75650024414062" rx="12.060099601745605" ry="12.316699981689453" fill="#6767e7" class="" id="svg_49" transform="translate(0)" stroke-width="7" fill-opacity="1"/><ellipse cx="162.68299865722656" cy="88.01309967041016" rx="8.211130142211914" ry="8.467729568481445" fill="#6767e7" id="svg_21" class="" stroke-width="7" opacity="0.68" fill-opacity="1"/><g clip-path="url(#clip2_690_3331)" id="svg_22">
<path d="M162.683 91.6055C162.683 91.6055 165.762 90.0659 165.762 87.7565V85.0622L162.683 83.9075L159.604 85.0622V87.7565C159.604 90.0659 162.683 91.6055 162.683 91.6055Z" stroke="white" stroke-width="2" stroke-linecap="round" stroke-linejoin="round" id="svg_23"/>
</g><ellipse opacity="0.68" cx="12.060099601745605" cy="87.75650024414062" rx="12.060099601745605" ry="12.316699981689453" fill="#6767e7" id="svg_24" class="" stroke-width="7" fill-opacity="1"/><ellipse cx="11.80370044708252" cy="88.01309967041016" rx="8.211130142211914" ry="8.467729568481445" fill="#6767e7" id="svg_25" class="" transform="matrix(1, 0, 0, 1, 0, 0) matrix(1, 0, 0, 1, 0, 0) matrix(1, 0, 0, 1, 0, 0) matrix(1, 0, 0, 1, 0, 0) matrix(1, 0, 0, 1, 0, 0) matrix(1, 0, 0, 1, 0, 0) matrix(1, 0, 0, 1, 0, 0) matrix(1, 0, 0, 1, 0, 0) matrix(1, 0, 0, 1, 0, 0) matrix(1, 0, 0, 1, 0, 0)" stroke-width="7" opacity="0.68" fill-opacity="1"/><g clip-path="url(#clip3_690_3331)" id="svg_26" class="" transform="matrix(1, 0, 0, 1, 0, 0)">
<path d="M12.5733 83.9075H9.49416C9.29 83.9075 9.0942 83.9886 8.94983 84.133C8.80547 84.2774 8.72437 84.4732 8.72437 84.6773V90.8357C8.72437 91.0398 8.80547 91.2356 8.94983 91.38C9.0942 91.5244 9.29 91.6055 9.49416 91.6055H14.1129C14.3171 91.6055 14.5129 91.5244 14.6572 91.38C14.8016 91.2356 14.8827 91.0398 14.8827 90.8357V86.2169L12.5733 83.9075Z" stroke="white" stroke-width="2" stroke-linecap="round" stroke-linejoin="round" id="svg_27"/>
<path d="M13.3431 89.681H10.2639" stroke="white" stroke-width="2" stroke-linecap="round" stroke-linejoin="round" id="svg_28"/>
<path d="M13.3431 88.1414H10.2639" stroke="white" stroke-width="2" stroke-linecap="round" stroke-linejoin="round" id="svg_29"/>
<path d="M11.0337 86.6018H10.6488H10.2639" stroke="white" stroke-width="2" stroke-linecap="round" stroke-linejoin="round" id="svg_30"/>
<path d="M12.5735 83.9075V86.2169H14.8829" stroke="white" stroke-width="2" stroke-linecap="round" stroke-linejoin="round" id="svg_31"/>
</g><ellipse opacity="0.68" cx="143.9510040283203" cy="137.53700256347656" rx="12.060099601745605" ry="12.316699981689453" fill="#6767e7" id="svg_32" class="" stroke-width="7" fill-opacity="1"/><ellipse cx="143.69500732421875" cy="137.79299926757812" rx="8.211130142211914" ry="8.467729568481445" fill="#6767e7" id="svg_33" class="" transform="matrix(1, 0, 0, 1, 0, 0) matrix(1, 0, 0, 1, 0, 0) matrix(1, 0, 0, 1, 0, 0) matrix(1, 0, 0, 1, 0, 0) matrix(1, 0, 0, 1, 0, 0) matrix(1, 0, 0, 1, 0, 0) matrix(1, 0, 0, 1, 0, 0) matrix(1, 0, 0, 1, 0, 0) matrix(1, 0, 0, 1, 0, 0) matrix(1, 0, 0, 1, 0, 0)" stroke-width="7" opacity="0.68" fill-opacity="1"/><g clip-path="url(#clip4_690_3331)" id="svg_34">
<path d="M147.159 137.537C147.159 138.176 145.62 138.691 143.695 138.691C141.771 138.691 140.231 138.176 140.231 137.537" stroke="white" stroke-width="2" stroke-linecap="round" stroke-linejoin="round" id="svg_35"/>
<path d="M143.695 135.997C145.608 135.997 147.159 135.48 147.159 134.842C147.159 134.205 145.608 133.688 143.695 133.688C141.782 133.688 140.231 134.205 140.231 134.842C140.231 135.48 141.782 135.997 143.695 135.997Z" stroke="white" stroke-width="2" stroke-linecap="round" stroke-linejoin="round" id="svg_36"/>
<path d="M140.231 134.842V140.231C140.231 140.87 141.771 141.386 143.695 141.386C145.62 141.386 147.159 140.87 147.159 140.231V134.842" stroke="white" stroke-width="2" stroke-linecap="round" stroke-linejoin="round" id="svg_37"/>
</g><ellipse opacity="0.68" cx="30.535200119018555" cy="137.53700256347656" rx="12.060099601745605" ry="12.316699981689453" fill="#6767e7" id="svg_38" class="" stroke-width="7" fill-opacity="1"/><ellipse cx="30.278499603271484" cy="137.79299926757812" rx="8.211130142211914" ry="8.467729568481445" fill="#6767e7" id="svg_39" class="" transform="matrix(1, 0, 0, 1, 0, 0) matrix(1, 0, 0, 1, 0, 0) matrix(1, 0, 0, 1, 0, 0) matrix(1, 0, 0, 1, 0, 0) matrix(1, 0, 0, 1, 0, 0) matrix(1, 0, 0, 1, 0, 0) matrix(1, 0, 0, 1, 0, 0) matrix(1, 0, 0, 1, 0, 0) matrix(1, 0, 0, 1, 0, 0) matrix(1, 0, 0, 1, 0, 0)" stroke-width="7" opacity="0.68" fill-opacity="1"/><g clip-path="url(#clip5_690_3331)" id="svg_40">
<path d="M32.973 137.152H27.5845C27.1593 137.152 26.8147 137.497 26.8147 137.922V140.616C26.8147 141.041 27.1593 141.386 27.5845 141.386H32.973C33.3982 141.386 33.7428 141.041 33.7428 140.616V137.922C33.7428 137.497 33.3982 137.152 32.973 137.152Z" stroke="white" stroke-width="2" stroke-linecap="round" stroke-linejoin="round" id="svg_41"/>
<path d="M28.3542 137.152V135.612C28.3542 135.102 28.557 134.612 28.9179 134.251C29.2788 133.891 29.7683 133.688 30.2787 133.688C30.7891 133.688 31.2786 133.891 31.6395 134.251C32.0005 134.612 32.2032 135.102 32.2032 135.612V137.152" stroke="white" stroke-width="2" stroke-linecap="round" stroke-linejoin="round" id="svg_42"/>
</g><ellipse opacity="0.68" cx="30.535200119018555" cy="36.95009994506836" rx="12.060099601745605" ry="12.316699981689453" fill="#6767e7" id="svg_43" class="" stroke-width="7" fill-opacity="1"/><ellipse cx="30.278499603271484" cy="37.2067985534668" rx="8.211130142211914" ry="8.467729568481445" fill="#6767e7" id="svg_44" class="" transform="matrix(1, 0, 0, 1, 0, 0) matrix(1, 0, 0, 1, 0, 0) matrix(1, 0, 0, 1, 0, 0) matrix(1, 0, 0, 1, 0, 0) matrix(1, 0, 0, 1, 0, 0) matrix(1, 0, 0, 1, 0, 0) matrix(1, 0, 0, 1, 0, 0) matrix(1, 0, 0, 1, 0, 0) matrix(1, 0, 0, 1, 0, 0) matrix(1, 0, 0, 1, 0, 0)" stroke-width="7" opacity="0.68" fill-opacity="1"/><g clip-path="url(#clip6_690_3331)" id="svg_45">
<path d="M30.6635 33.1013H27.9693C27.7651 33.1013 27.5693 33.1824 27.4249 33.3267C27.2806 33.4711 27.1995 33.6669 27.1995 33.8711V40.0294C27.1995 40.2336 27.2806 40.4294 27.4249 40.5737C27.5693 40.7181 27.7651 40.7992 27.9693 40.7992H32.588C32.7922 40.7992 32.988 40.7181 33.1323 40.5737C33.2767 40.4294 33.3578 40.2336 33.3578 40.0294V35.7955L30.6635 33.1013Z" stroke="white" stroke-width="2" stroke-linecap="round" stroke-linejoin="round" id="svg_46"/>
<path d="M30.6636 33.1013V35.7955H33.3579" stroke="white" stroke-width="2" stroke-linecap="round" stroke-linejoin="round" id="svg_47"/>
</g><path fill-rule="evenodd" clip-rule="evenodd" d="M159.581 27.3569C162.513 30.1169 162.653 34.7316 159.893 37.6641L92.052 109.745C87.9761 114.076 81.0762 114.02 77.0715 109.623L52.3594 82.4935C49.6476 79.5164 49.8626 74.9046 52.8397 72.1927C55.8169 69.4809 60.4287 69.696 63.1405 72.6731L84.6708 96.3095L149.273 27.6692C152.033 24.7367 156.648 24.5969 159.581 27.3569Z" fill="url(#paint16_linear_690_3331)" id="svg_48"/></g></svg>